<mxfile host="Electron" modified="2024-06-16T11:13:15.285Z" agent="Mozilla/5.0 (Windows NT 10.0; Win64; x64) AppleWebKit/537.36 (KHTML, like Gecko) draw.io/24.5.3 Chrome/124.0.6367.207 Electron/30.0.6 Safari/537.36" etag="8kfi_sQ-HYFlqk1WDk8N" version="24.5.3" type="device">
  <diagram name="Page-1" id="51XbTd8yvjMRz24cOmSs">
    <mxGraphModel dx="1235" dy="731" grid="1" gridSize="10" guides="1" tooltips="1" connect="1" arrows="1" fold="1" page="1" pageScale="1" pageWidth="1169" pageHeight="827" math="0" shadow="0">
      <root>
        <mxCell id="0" />
        <mxCell id="1" parent="0" />
        <mxCell id="VeqnJ1D45zCAb6xf_HfH-1" value="HDFS" style="rounded=1;whiteSpace=wrap;html=1;fillColor=#dae8fc;strokeColor=#6c8ebf;labelPosition=center;verticalLabelPosition=bottom;align=center;verticalAlign=top;fontSize=21;" vertex="1" parent="1">
          <mxGeometry x="330" y="470" width="600" height="160" as="geometry" />
        </mxCell>
        <mxCell id="VeqnJ1D45zCAb6xf_HfH-2" value="Bronze" style="rounded=1;whiteSpace=wrap;html=1;fillColor=#ffe6cc;strokeColor=#d79b00;fontSize=15;" vertex="1" parent="1">
          <mxGeometry x="380" y="520" width="120" height="60" as="geometry" />
        </mxCell>
        <mxCell id="VeqnJ1D45zCAb6xf_HfH-3" value="Silver" style="rounded=1;whiteSpace=wrap;html=1;fillColor=#f5f5f5;strokeColor=#666666;fontSize=15;fontColor=#333333;" vertex="1" parent="1">
          <mxGeometry x="530" y="520" width="120" height="60" as="geometry" />
        </mxCell>
        <mxCell id="VeqnJ1D45zCAb6xf_HfH-4" value="Gold" style="rounded=1;whiteSpace=wrap;html=1;fillColor=#fff2cc;strokeColor=#d6b656;fontSize=15;" vertex="1" parent="1">
          <mxGeometry x="680" y="520" width="120" height="60" as="geometry" />
        </mxCell>
        <mxCell id="VeqnJ1D45zCAb6xf_HfH-25" style="edgeStyle=orthogonalEdgeStyle;rounded=0;orthogonalLoop=1;jettySize=auto;html=1;entryX=1;entryY=0.5;entryDx=0;entryDy=0;dashed=1;" edge="1" parent="1" source="VeqnJ1D45zCAb6xf_HfH-5" target="VeqnJ1D45zCAb6xf_HfH-6">
          <mxGeometry relative="1" as="geometry">
            <Array as="points">
              <mxPoint x="970" y="550" />
              <mxPoint x="970" y="330" />
            </Array>
          </mxGeometry>
        </mxCell>
        <mxCell id="VeqnJ1D45zCAb6xf_HfH-5" value="PySpark .py files" style="rounded=1;whiteSpace=wrap;html=1;fillColor=#b0e3e6;strokeColor=#0e8088;" vertex="1" parent="1">
          <mxGeometry x="850" y="520" width="60" height="60" as="geometry" />
        </mxCell>
        <mxCell id="VeqnJ1D45zCAb6xf_HfH-6" value="Apache Spark Cluster" style="rounded=1;whiteSpace=wrap;html=1;fillColor=#fad7ac;strokeColor=#b46504;fontSize=21;" vertex="1" parent="1">
          <mxGeometry x="330" y="270" width="600" height="120" as="geometry" />
        </mxCell>
        <mxCell id="VeqnJ1D45zCAb6xf_HfH-7" value="Retail App" style="rounded=1;whiteSpace=wrap;html=1;fillColor=#d5e8d4;strokeColor=#82b366;labelPosition=center;verticalLabelPosition=top;align=center;verticalAlign=bottom;fontSize=18;" vertex="1" parent="1">
          <mxGeometry x="30" y="200" width="180" height="190" as="geometry" />
        </mxCell>
        <mxCell id="VeqnJ1D45zCAb6xf_HfH-8" value="App" style="rounded=1;whiteSpace=wrap;html=1;" vertex="1" parent="1">
          <mxGeometry x="60" y="210" width="120" height="60" as="geometry" />
        </mxCell>
        <mxCell id="VeqnJ1D45zCAb6xf_HfH-15" style="edgeStyle=orthogonalEdgeStyle;rounded=0;orthogonalLoop=1;jettySize=auto;html=1;exitX=0.5;exitY=0;exitDx=0;exitDy=0;entryX=0.5;entryY=1;entryDx=0;entryDy=0;startArrow=classic;startFill=1;" edge="1" parent="1" source="VeqnJ1D45zCAb6xf_HfH-9" target="VeqnJ1D45zCAb6xf_HfH-8">
          <mxGeometry relative="1" as="geometry" />
        </mxCell>
        <mxCell id="VeqnJ1D45zCAb6xf_HfH-18" style="edgeStyle=orthogonalEdgeStyle;rounded=0;orthogonalLoop=1;jettySize=auto;html=1;entryX=0;entryY=0.5;entryDx=0;entryDy=0;" edge="1" parent="1" source="VeqnJ1D45zCAb6xf_HfH-9" target="VeqnJ1D45zCAb6xf_HfH-6">
          <mxGeometry relative="1" as="geometry" />
        </mxCell>
        <mxCell id="VeqnJ1D45zCAb6xf_HfH-9" value="Database" style="rounded=1;whiteSpace=wrap;html=1;" vertex="1" parent="1">
          <mxGeometry x="60" y="300" width="120" height="60" as="geometry" />
        </mxCell>
        <mxCell id="VeqnJ1D45zCAb6xf_HfH-12" value="Jupyter Server" style="rounded=1;whiteSpace=wrap;html=1;fillColor=#f8cecc;strokeColor=#b85450;fontSize=14;" vertex="1" parent="1">
          <mxGeometry x="810" y="170" width="120" height="60" as="geometry" />
        </mxCell>
        <mxCell id="VeqnJ1D45zCAb6xf_HfH-16" style="edgeStyle=orthogonalEdgeStyle;rounded=0;orthogonalLoop=1;jettySize=auto;html=1;entryX=0.901;entryY=-0.007;entryDx=0;entryDy=0;entryPerimeter=0;startArrow=classic;startFill=1;" edge="1" parent="1" source="VeqnJ1D45zCAb6xf_HfH-12" target="VeqnJ1D45zCAb6xf_HfH-6">
          <mxGeometry relative="1" as="geometry" />
        </mxCell>
        <mxCell id="VeqnJ1D45zCAb6xf_HfH-20" style="edgeStyle=orthogonalEdgeStyle;rounded=0;orthogonalLoop=1;jettySize=auto;html=1;exitX=0.75;exitY=0;exitDx=0;exitDy=0;entryX=0.233;entryY=1.013;entryDx=0;entryDy=0;entryPerimeter=0;startArrow=none;startFill=0;endArrow=classic;endFill=1;" edge="1" parent="1" source="VeqnJ1D45zCAb6xf_HfH-2" target="VeqnJ1D45zCAb6xf_HfH-6">
          <mxGeometry relative="1" as="geometry" />
        </mxCell>
        <mxCell id="VeqnJ1D45zCAb6xf_HfH-21" style="edgeStyle=orthogonalEdgeStyle;rounded=0;orthogonalLoop=1;jettySize=auto;html=1;exitX=0.25;exitY=0;exitDx=0;exitDy=0;entryX=0.133;entryY=1;entryDx=0;entryDy=0;entryPerimeter=0;startArrow=classic;startFill=1;endArrow=none;endFill=0;" edge="1" parent="1" source="VeqnJ1D45zCAb6xf_HfH-2" target="VeqnJ1D45zCAb6xf_HfH-6">
          <mxGeometry relative="1" as="geometry" />
        </mxCell>
        <mxCell id="VeqnJ1D45zCAb6xf_HfH-22" style="edgeStyle=orthogonalEdgeStyle;rounded=0;orthogonalLoop=1;jettySize=auto;html=1;exitX=0.25;exitY=0;exitDx=0;exitDy=0;entryX=0.383;entryY=1;entryDx=0;entryDy=0;entryPerimeter=0;" edge="1" parent="1" source="VeqnJ1D45zCAb6xf_HfH-3" target="VeqnJ1D45zCAb6xf_HfH-6">
          <mxGeometry relative="1" as="geometry" />
        </mxCell>
        <mxCell id="VeqnJ1D45zCAb6xf_HfH-23" style="edgeStyle=orthogonalEdgeStyle;rounded=0;orthogonalLoop=1;jettySize=auto;html=1;exitX=0.75;exitY=0;exitDx=0;exitDy=0;entryX=0.483;entryY=1;entryDx=0;entryDy=0;entryPerimeter=0;startArrow=classic;startFill=1;endArrow=none;endFill=0;" edge="1" parent="1" source="VeqnJ1D45zCAb6xf_HfH-3" target="VeqnJ1D45zCAb6xf_HfH-6">
          <mxGeometry relative="1" as="geometry" />
        </mxCell>
        <mxCell id="VeqnJ1D45zCAb6xf_HfH-24" style="edgeStyle=orthogonalEdgeStyle;rounded=0;orthogonalLoop=1;jettySize=auto;html=1;exitX=0.5;exitY=0;exitDx=0;exitDy=0;entryX=0.682;entryY=1.027;entryDx=0;entryDy=0;entryPerimeter=0;startArrow=classic;startFill=1;endArrow=none;endFill=0;" edge="1" parent="1" source="VeqnJ1D45zCAb6xf_HfH-4" target="VeqnJ1D45zCAb6xf_HfH-6">
          <mxGeometry relative="1" as="geometry" />
        </mxCell>
        <mxCell id="VeqnJ1D45zCAb6xf_HfH-26" value="Spark REST Endpoint" style="rounded=1;whiteSpace=wrap;html=1;fillColor=#e1d5e7;strokeColor=#9673a6;fontSize=14;" vertex="1" parent="1">
          <mxGeometry x="550" y="170" width="120" height="60" as="geometry" />
        </mxCell>
        <mxCell id="VeqnJ1D45zCAb6xf_HfH-27" style="edgeStyle=orthogonalEdgeStyle;rounded=0;orthogonalLoop=1;jettySize=auto;html=1;exitX=0.5;exitY=1;exitDx=0;exitDy=0;entryX=0.466;entryY=0.013;entryDx=0;entryDy=0;entryPerimeter=0;startArrow=classic;startFill=1;" edge="1" parent="1" source="VeqnJ1D45zCAb6xf_HfH-26" target="VeqnJ1D45zCAb6xf_HfH-6">
          <mxGeometry relative="1" as="geometry" />
        </mxCell>
        <mxCell id="VeqnJ1D45zCAb6xf_HfH-29" style="edgeStyle=orthogonalEdgeStyle;rounded=0;orthogonalLoop=1;jettySize=auto;html=1;entryX=0.5;entryY=0;entryDx=0;entryDy=0;startArrow=classic;startFill=1;" edge="1" parent="1" source="VeqnJ1D45zCAb6xf_HfH-28" target="VeqnJ1D45zCAb6xf_HfH-26">
          <mxGeometry relative="1" as="geometry" />
        </mxCell>
        <mxCell id="VeqnJ1D45zCAb6xf_HfH-28" value="Orchestrator" style="rounded=1;whiteSpace=wrap;html=1;fillColor=#b0e3e6;strokeColor=#0e8088;fontSize=15;" vertex="1" parent="1">
          <mxGeometry x="550" y="70" width="120" height="60" as="geometry" />
        </mxCell>
        <mxCell id="VeqnJ1D45zCAb6xf_HfH-31" style="edgeStyle=orthogonalEdgeStyle;rounded=0;orthogonalLoop=1;jettySize=auto;html=1;entryX=0.5;entryY=0;entryDx=0;entryDy=0;startArrow=classic;startFill=1;" edge="1" parent="1" source="VeqnJ1D45zCAb6xf_HfH-30" target="VeqnJ1D45zCAb6xf_HfH-12">
          <mxGeometry relative="1" as="geometry" />
        </mxCell>
        <mxCell id="VeqnJ1D45zCAb6xf_HfH-30" value="Development" style="verticalLabelPosition=top;html=1;verticalAlign=bottom;align=center;strokeColor=none;fillColor=#00BEF2;shape=mxgraph.azure.laptop;pointerEvents=1;labelPosition=center;" vertex="1" parent="1">
          <mxGeometry x="836.66" y="70" width="66.67" height="40" as="geometry" />
        </mxCell>
      </root>
    </mxGraphModel>
  </diagram>
</mxfile>
